:SAMPLES-PER-SECOND 30
:FRAME-RANGE 1-1700
:FULLY-SPECIFIED
:DEGREES
904
root  -45.3059 38.5232 -33.0515 -177.222 41.3776 175.035
RightUpLeg  -27.7589 -6.0715 -11.5971
RightLeg  1.68699 9.40751 -2.04145
RightFoot  -13.0413 0.0728297 10.8637
RightToes  6.35937e-011 1.2921e-014 -6.02303e-014
Spine  2.67968 -0.919639 3.25176
Spine1  4.92019 0.298741 -3.45925
HEad  11.2033 24.7018 -10.9587
LeftShoulder1  1.62456 -4.13934 -15.2499
LeftArm  -2.13858 -10.7792 -58.3429
LeftForeArm  48.9136 7.45193 -12.8866
LeftHand  -0.0370249 6.23878 -0.352715
RightShoulder  1.5814 1.69056 25.5851
RightArm  -32.3543 -8.1351 46.3584
RightForeArm  71.1217 -4.6381 -0.174044
RightHand  0.162467 -6.2939 -21.9224
LeftUpLeg  -3.93567 -5.72947 -9.83206
LeftLeg  17.976 -0.64363 1.93373
LeftFoot  -18.8827 0.501488 5.88049
LeftToes  -1.9349e-011 5.45182e-011 1.33515e-010
905
root  -43.8647 38.2134 -33.9825 -177.541 41.3337 175.071
RightUpLeg  -27.8561 -6.44811 -10.8661
RightLeg  -0.379954 7.59557 -1.69303
RightFoot  -14.7738 0.279701 12.6468
RightToes  6.35937e-011 1.2921e-014 -6.02303e-014
Spine  1.79427 -0.990762 3.06717
Spine1  5.1722 0.270288 -3.68953
HEad  10.9093 24.648 -11.4173
LeftShoulder1  1.5784 -3.9582 -15.1494
LeftArm  -3.07792 -9.08067 -58.4671
LeftForeArm  48.5972 7.46542 -12.633
LeftHand  -0.0323689 6.31252 0.224313
RightShoulder  1.51262 1.4531 25.7158
RightArm  -33.4599 -11.5497 45.6464
RightForeArm  71.7177 -4.5258 -0.69182
RightHand  0.230744 -6.69971 -21.2615
LeftUpLeg  -0.959681 -5.74485 -9.46275
LeftLeg  18.6368 -0.395761 2.16148
LeftFoot  -21.525 0.595923 5.23114
LeftToes  -1.9349e-011 5.45182e-011 1.33515e-010
906
root  -42.4302 37.9174 -34.8949 -177.743 41.8579 175.401
RightUpLeg  -29.227 -3.98677 -10.473
RightLeg  4.53259 5.87438 -1.1346
RightFoot  -12.9403 0.056532 10.3374
RightToes  6.35937e-011 1.2921e-014 -6.02303e-014
Spine  1.37939 -0.835128 3.2693
Spine1  5.45243 0.362201 -3.75981
HEad  10.3195 25.1517 -12.3967
LeftShoulder1  1.5666 -3.90018 -15.1616
LeftArm  -3.96249 -7.71182 -58.7865
LeftForeArm  48.8419 7.4427 -12.4307
LeftHand  -0.0282717 6.4958 0.664305
RightShoulder  1.5142 1.4508 25.7666
RightArm  -34.3167 -14.0439 44.7738
RightForeArm  73.1681 -4.37839 -1.212
RightHand  0.286075 -7.05008 -20.7058
LeftUpLeg  2.04478 -5.68471 -8.75641
LeftLeg  19.2719 0.0150457 2.15143
LeftFoot  -23.566 0.548124 3.79366
LeftToes  -1.9349e-011 5.45182e-011 1.33515e-010
907
root  -41.0106 37.755 -35.8092 -177.595 41.3803 175.775
RightUpLeg  -30.2046 0.807528 -11.9986
RightLeg  10.4941 5.03554 -0.136477
RightFoot  -9.97325 -0.209156 11.783
RightToes  6.35937e-011 1.2921e-014 -6.02303e-014
Spine  0.548671 -1.09794 3.41722
Spine1  6.26717 -0.234331 -3.11795
HEad  9.5113 25.892 -13.6765
LeftShoulder1  1.5175 -3.71572 -15.0206
LeftArm  -4.35253 -6.58937 -59.3771
LeftForeArm  48.9624 7.44138 -12.45
LeftHand  -0.021839 6.73656 1.15678
RightShoulder  1.4464 1.21752 25.9058
RightArm  -34.7732 -15.6548 43.9326
RightForeArm  75.5916 -4.21432 -1.59035
RightHand  0.37928 -7.6436 -20.1111
LeftUpLeg  4.61609 -7.13844 -7.93089
LeftLeg  19.9482 0.657772 1.75704
LeftFoot  -23.9803 0.32046 1.59241
LeftToes  -1.9349e-011 5.45182e-011 1.33515e-010
908
root  -39.7158 37.7509 -36.7005 -177.362 40.064 176.604
RightUpLeg  -31.0813 4.71328 -13.17
RightLeg  16.3685 2.09266 0.483809
RightFoot  -4.79335 -0.874838 14.6452
RightToes  6.35937e-011 1.2921e-014 -6.02303e-014
Spine  1.16688 -1.58806 4.49763
Spine1  5.77801 -1.0427 -2.32012
HEad  9.09868 26.6543 -15.4356
LeftShoulder1  1.52501 -3.45652 -16.0474
LeftArm  -4.33475 -5.66276 -59.2148
LeftForeArm  49.3025 7.4406 -12.5653
LeftHand  -0.0216712 6.73499 1.1704
RightShoulder  1.27346 0.615449 26.3969
RightArm  -34.5285 -16.6022 42.4303
RightForeArm  76.7194 -4.16502 -1.60484
RightHand  0.433883 -8.07898 -19.2872
LeftUpLeg  6.30578 -9.71989 -6.83979
LeftLeg  22.1677 1.63404 1.0785
LeftFoot  -22.6514 0.00251462 -1.34753
LeftToes  -1.9349e-011 5.45182e-011 1.33515e-010
909
root  -38.4161 37.6921 -37.6218 -176.975 39.5067 177.685
RightUpLeg  -31.2493 2.5739 -10.9525
RightLeg  22.3722 3.83255 1.52256
RightFoot  -6.4584 -0.706389 15.4435
RightToes  6.35937e-011 1.2921e-014 -6.02303e-014
Spine  1.57755 -1.84218 5.77006
Spine1  5.33297 -1.31633 -2.33195
HEad  8.31083 27.2525 -17.3073
LeftShoulder1  1.56138 -3.31608 -17.166
LeftArm  -5.06752 -4.78735 -59.7802
LeftForeArm  48.8135 7.42841 -12.3191
LeftHand  -0.0101961 6.92534 1.89633
RightShoulder  1.24737 0.515809 26.5625
RightArm  -34.741 -15.9482 41.3544
RightForeArm  77.8256 -4.0525 -1.98751
RightHand  0.431503 -8.23037 -18.2526
LeftUpLeg  5.62917 -8.4328 -5.05318
LeftLeg  28.5426 0.401115 0.595376
LeftFoot  -19.792 -0.263516 -5.16978
LeftToes  -1.9349e-011 5.45182e-011 1.33515e-010
910
root  -37.2382 37.8084 -38.4341 -176.655 38.0632 178.204
RightUpLeg  -30.2907 1.17668 -9.64422
RightLeg  25.4152 3.87222 1.78634
RightFoot  -6.74247 -0.629693 14.4619
RightToes  6.35937e-011 1.2921e-014 -6.02303e-014
Spine  1.13798 -2.0536 6.10885
Spine1  6.17311 -1.86753 -1.04075
HEad  8.49884 27.1559 -17.5131
LeftShoulder1  1.58646 -3.46487 -17.0059
LeftArm  -5.84147 -4.47099 -61.7177
LeftForeArm  47.4578 7.42094 -12.0368
LeftHand  -0.00513679 6.80375 2.37246
RightShoulder  1.30854 0.735434 26.3031
RightArm  -35.3474 -14.7497 41.5322
RightForeArm  78.9983 -3.91366 -2.50217
RightHand  0.505515 -8.74194 -18.0561
LeftUpLeg  2.43206 -4.84955 -2.40929
LeftLeg  36.8396 -1.33511 -0.693668
LeftFoot  -12.8171 -0.0323692 -8.45452
LeftToes  -1.9349e-011 5.45182e-011 1.33515e-010
911
root  -36.1444 38.0724 -39.1676 -176.337 35.7104 178.747
RightUpLeg  -28.4755 0.873022 -8.51901
RightLeg  26.9355 2.22352 1.00193
RightFoot  -7.11452 -0.468506 11.3448
RightToes  6.35937e-011 1.2921e-014 -6.02303e-014
Spine  1.3859 -2.04734 6.85582
Spine1  5.97557 -2.07278 0.122257
HEad  10.4447 25.8869 -15.4994
LeftShoulder1  1.48856 -3.19685 -16.4174
LeftArm  -6.19352 -4.48156 -63.6595
LeftForeArm  47.5448 7.38103 -11.793
LeftHand  -0.0123833 6.73007 1.89602
RightShoulder  1.28116 0.627325 26.4999
RightArm  -34.5001 -14.2646 41.6319
RightForeArm  78.8312 -4.0198 -1.93051
RightHand  0.508353 -8.79182 -17.9012
LeftUpLeg  -2.32345 -2.49672 -0.0702863
LeftLeg  45.698 -1.05397 -0.734809
LeftFoot  -3.10337 0.809187 -10.954
LeftToes  -1.9349e-011 5.45182e-011 1.33515e-010
912
root  -35.1124 38.2245 -39.8777 -176.384 33.6846 179.654
RightUpLeg  -26.0701 0.442928 -6.99151
RightLeg  28.2973 0.960594 0.328081
RightFoot  -9.00663 -0.263535 9.89746
RightToes  6.35937e-011 1.2921e-014 -6.02303e-014
Spine  2.52107 -1.74016 8.36796
Spine1  5.05111 -1.61454 0.429308
HEad  11.8852 23.8384 -13.5041
LeftShoulder1  1.47887 -3.11021 -16.5893
LeftArm  -6.19682 -4.35357 -64.3578
LeftForeArm  45.62 7.40267 -11.6165
LeftHand  -0.0171271 6.53242 1.66753
RightShoulder  1.34012 0.77324 26.8013
RightArm  -32.8387 -13.38 41.5511
RightForeArm  78.6496 -4.20985 -0.87268
RightHand  0.51385 -8.76752 -18.1954
LeftUpLeg  -7.21711 0.136399 1.82
LeftLeg  54.2929 0.929467 1.88989
LeftFoot  3.985 1.03557 -7.86877
LeftToes  -1.9349e-011 5.45182e-011 1.33515e-010
913
root  -34.0938 38.4519 -40.6577 -177.049 31.852 179.529
RightUpLeg  -23.0747 -0.724906 -6.32044
RightLeg  28.6445 0.418501 0.0121649
RightFoot  -10.9542 -0.105236 9.06195
RightToes  6.35937e-011 1.2921e-014 -6.02303e-014
Spine  2.68358 -1.31495 9.01413
Spine1  5.08335 -0.998248 -0.0185162
HEad  12.5417 21.5012 -11.6977
LeftShoulder1  1.45908 -2.97938 -16.7684
LeftArm  -6.35123 -4.60529 -64.685
LeftForeArm  42.6636 7.44962 -11.4672
LeftHand  -0.0124527 6.27798 2.45797
RightShoulder  1.43861 1.03798 27.0919
RightArm  -32.0393 -11.0128 41.8723
RightForeArm  79.4311 -4.24519 -0.472682
RightHand  0.515036 -8.70725 -18.5391
LeftUpLeg  -11.4568 2.3374 2.02586
LeftLeg  60.889 3.36589 7.12541
LeftFoot  0.994016 0.706066 -6.58613
LeftToes  -1.9349e-011 5.45182e-011 1.33515e-010
